# Dry 3D Toolpath Mesh (Wavefront OBJ)
# Vertices: 560, Line Segments: 559
o DryToolpath
v 130.0000 100.0000 0.0000
v 115.0000 125.9808 0.0000
v 85.0000 125.9808 0.0000
v 70.0000 100.0000 0.0000
v 85.0000 74.0192 0.0000
v 115.0000 74.0192 0.0000
v 130.0000 100.0000 0.0000
v 130.8033 102.4243 0.2500
v 113.3021 127.8885 0.2500
v 82.4989 125.4643 0.2500
v 69.1967 97.5757 0.2500
v 86.6979 72.1115 0.2500
v 117.5011 74.5357 0.2500
v 130.8033 102.4243 0.2500
v 131.3967 104.9727 0.5000
v 111.3918 129.6767 0.5000
v 79.9951 124.7039 0.5000
v 68.6033 95.0273 0.5000
v 88.6082 70.3233 0.5000
v 120.0049 75.2961 0.5000
v 131.3967 104.9727 0.5000
v 131.7573 107.6243 0.7500
v 109.2759 131.3147 0.7500
v 77.5186 123.6905 0.7500
v 68.2427 92.3757 0.7500
v 90.7241 68.6853 0.7500
v 122.4814 76.3095 0.7500
v 131.7573 107.6243 0.7500
v 131.8649 110.3535 1.0000
v 106.9660 132.7726 1.0000
v 75.1011 122.4191 1.0000
v 68.1351 89.6465 1.0000
v 93.0340 67.2274 1.0000
v 124.8989 77.5809 1.0000
v 131.8649 110.3535 1.0000
v 131.7028 113.1317 1.2500
v 104.4790 134.0213 1.2500
v 72.7762 120.8895 1.2500
v 68.2972 86.8683 1.2500
v 95.5210 65.9787 1.2500
v 127.2238 79.1105 1.2500
v 131.7028 113.1317 1.2500
v 131.2581 115.9268 1.5000
v 101.8360 135.0337 1.5000
v 70.5779 119.1069 1.5000
v 68.7419 84.0732 1.5000
v 98.1640 64.9663 1.5000
v 129.4221 80.8931 1.5000
v 131.2581 115.9268 1.5000
v 130.5228 118.7044 1.7500
v 99.0629 135.7857 1.7500
v 68.5401 117.0813 1.7500
v 69.4772 81.2956 1.7500
v 100.9371 64.2143 1.7500
v 131.4599 82.9187 1.7500
v 130.5228 118.7044 1.7500
v 129.4937 121.4284 2.0000
v 96.1893 136.2565 2.0000
v 66.6956 114.8281 2.0000
v 70.5063 78.5716 2.0000
v 103.8107 63.7435 2.0000
v 133.3044 85.1719 2.0000
v 129.4937 121.4284 2.0000
v 128.1730 124.0620 2.2500
v 93.2482 136.4295 2.2500
v 65.0752 112.3675 2.2500
v 71.8270 75.9380 2.2500
v 106.7518 63.5705 2.2500
v 134.9248 87.6325 2.2500
v 128.1730 124.0620 2.2500
v 126.5683 126.5683 2.5000
v 90.2753 136.2930 2.5000
v 63.7070 109.7247 2.5000
v 73.4317 73.4317 2.5000
v 109.7247 63.7070 2.5000
v 136.2930 90.2753 2.5000
v 126.5683 126.5683 2.5000
v 124.6926 128.9113 2.7500
v 87.3084 135.8400 2.7500
v 62.6158 106.9288 2.7500
v 75.3074 71.0887 2.7500
v 112.6916 64.1600 2.7500
v 137.3842 93.0712 2.7500
v 124.6926 128.9113 2.7500
v 122.5641 131.0568 3.0000
v 84.3861 135.0695 3.0000
v 61.8219 104.0127 3.0000
v 77.4359 68.9432 3.0000
v 115.6139 64.9305 3.0000
v 138.1781 95.9873 3.0000
v 122.5641 131.0568 3.0000
v 120.2061 132.9733 3.2500
v 81.5473 133.9856 3.2500
v 61.3412 101.0123 3.2500
v 79.7939 67.0267 3.2500
v 118.4527 66.0144 3.2500
v 138.6588 98.9877 3.2500
v 120.2061 132.9733 3.2500
v 117.6462 134.6326 3.5000
v 78.8304 132.5983 3.5000
v 61.1842 97.9658 3.5000
v 82.3538 65.3674 3.5000
v 121.1696 67.4017 3.5000
v 138.8158 102.0342 3.5000
v 117.6462 134.6326 3.5000
v 114.9160 136.0105 3.7500
v 76.2720 130.9229 3.7500
v 61.3560 94.9124 3.7500
v 85.0840 63.9895 3.7500
v 123.7280 69.0771 3.7500
v 138.6440 105.0876 3.7500
v 114.9160 136.0105 3.7500
v 112.0505 137.0876 4.0000
v 73.9065 128.9798 4.0000
v 61.8560 91.8922 4.0000
v 87.9495 62.9124 4.0000
v 126.0935 71.0202 4.0000
v 138.1440 108.1078 4.0000
v 112.0505 137.0876 4.0000
v 109.0869 137.8495 4.2500
v 71.7648 126.7942 4.2500
v 62.6780 88.9447 4.2500
v 90.9131 62.1505 4.2500
v 128.2352 73.2058 4.2500
v 137.3220 111.0553 4.2500
v 109.0869 137.8495 4.2500
v 106.0641 138.2874 4.5000
v 69.8742 124.3954 4.5000
v 63.8101 86.1080 4.5000
v 93.9359 61.7126 4.5000
v 130.1258 75.6046 4.5000
v 136.1899 113.8920 4.5000
v 106.0641 138.2874 4.5000
v 103.0220 138.3980 4.7500
v 68.2574 121.8161 4.7500
v 65.2354 83.4181 4.7500
v 96.9780 61.6020 4.7500
v 131.7426 78.1839 4.7500
v 134.7646 116.5819 4.7500
v 103.0220 138.3980 4.7500
v 100.0000 138.1837 5.0000
v 66.9320 119.0918 5.0000
v 66.9320 80.9082 5.0000
v 100.0000 61.8163 5.0000
v 133.0680 80.9082 5.0000
v 133.0680 119.0918 5.0000
v 100.0000 138.1837 5.0000
v 97.0367 137.6525 5.2500
v 65.9104 116.2599 5.2500
v 68.8737 78.6075 5.2500
v 102.9633 62.3475 5.2500
v 134.0896 83.7401 5.2500
v 131.1263 121.3925 5.2500
v 97.0367 137.6525 5.2500
v 94.1687 136.8175 5.5000
v 65.1994 113.3587 5.5000
v 71.0307 76.5412 5.5000
v 105.8313 63.1825 5.5000
v 134.8006 86.6413 5.5000
v 128.9693 123.4588 5.5000
v 94.1687 136.8175 5.5000
v 91.4299 135.6970 5.7500
v 64.8004 110.4266 5.7500
v 73.3705 74.7296 5.7500
v 108.5701 64.3030 5.7500
v 135.1996 89.5734 5.7500
v 126.6295 125.2704 5.7500
v 91.4299 135.6970 5.7500
v 88.8509 134.3133 6.0000
v 64.7092 107.5013 6.0000
v 75.8583 73.1880 6.0000
v 111.1491 65.6867 6.0000
v 135.2908 92.4987 6.0000
v 124.1417 126.8120 6.0000
v 88.8509 134.3133 6.0000
v 86.4583 132.6926 6.2500
v 64.9165 104.6188 6.2500
v 78.4582 71.9262 6.2500
v 113.5417 67.3074 6.2500
v 135.0835 95.3812 6.2500
v 121.5418 128.0738 6.2500
v 86.4583 132.6926 6.2500
v 84.2740 130.8640 6.5000
v 65.4080 101.8129 6.5000
v 81.1340 70.9489 6.5000
v 115.7260 69.1360 6.5000
v 134.5920 98.1871 6.5000
v 118.8660 129.0511 6.5000
v 84.2740 130.8640 6.5000
v 82.3153 128.8588 6.7500
v 66.1652 99.1140 6.7500
v 83.8499 70.2552 6.7500
v 117.6847 71.1412 6.7500
v 133.8348 100.8860 6.7500
v 116.1501 129.7448 6.7500
v 82.3153 128.8588 6.7500
v 80.5943 126.7096 7.0000
v 67.1660 96.5490 7.0000
v 86.5716 69.8394 7.0000
v 119.4057 73.2904 7.0000
v 132.8340 103.4510 7.0000
v 113.4284 130.1606 7.0000
v 80.5943 126.7096 7.0000
v 79.1181 124.4495 7.2500
v 68.3852 94.1405 7.2500
v 89.2670 69.6910 7.2500
v 120.8819 75.5505 7.2500
v 131.6148 105.8595 7.2500
v 110.7330 130.3090 7.2500
v 79.1181 124.4495 7.2500
v 77.8887 122.1113 7.5000
v 69.7954 91.9067 7.5000
v 91.9067 69.7954 7.5000
v 122.1113 77.8887 7.5000
v 130.2046 108.0933 7.5000
v 108.0933 130.2046 7.5000
v 77.8887 122.1113 7.5000
v 76.9033 119.7265 7.7500
v 71.3680 89.8609 7.7500
v 94.4647 70.1344 7.7500
v 123.0967 80.2735 7.7500
v 128.6320 110.1391 7.7500
v 105.5353 129.8656 7.7500
v 76.9033 119.7265 7.7500
v 76.1545 117.3248 8.0000
v 73.0736 88.0116 8.0000
v 96.9191 70.6868 8.0000
v 123.8455 82.6752 8.0000
v 126.9264 111.9884 8.0000
v 103.0809 129.3132 8.0000
v 76.1545 117.3248 8.0000
v 75.6313 114.9332 8.2500
v 74.8832 86.3627 8.2500
v 99.2519 71.4295 8.2500
v 124.3687 85.0668 8.2500
v 125.1168 113.6373 8.2500
v 100.7481 128.5705 8.2500
v 75.6313 114.9332 8.2500
v 75.3190 112.5756 8.5000
v 76.7687 84.9134 8.5000
v 101.4497 72.3378 8.5000
v 124.6810 87.4244 8.5000
v 123.2313 115.0866 8.5000
v 98.5503 127.6622 8.5000
v 75.3190 112.5756 8.5000
v 75.2003 110.2724 8.7500
v 78.7041 83.6590 8.7500
v 103.5037 73.3867 8.7500
v 124.7997 89.7276 8.7500
v 121.2959 116.3410 8.7500
v 96.4963 126.6133 8.7500
v 75.2003 110.2724 8.7500
v 75.2561 108.0398 9.0000
v 80.6654 82.5910 9.0000
v 105.4093 74.5512 9.0000
v 124.7439 91.9602 9.0000
v 119.3346 117.4090 9.0000
v 94.5907 125.4488 9.0000
v 75.2561 108.0398 9.0000
v 75.4657 105.8902 9.2500
v 82.6318 81.6977 9.2500
v 107.1661 75.8076 9.2500
v 124.5343 94.1098 9.2500
v 117.3682 118.3023 9.2500
v 92.8339 124.1924 9.2500
v 75.4657 105.8902 9.2500
v 75.8083 103.8316 9.5000
v 84.5859 80.9651 9.5000
v 108.7776 77.1336 9.5000
v 124.1917 96.1684 9.5000
v 115.4141 119.0349 9.5000
v 91.2224 122.8664 9.5000
v 75.8083 103.8316 9.5000
v 76.2633 101.8681 9.7500
v 86.5138 80.3775 9.7500
v 110.2505 78.5093 9.7500
v 123.7367 98.1319 9.7500
v 113.4862 119.6225 9.7500
v 89.7495 121.4907 9.7500
v 76.2633 101.8681 9.7500
v 76.8112 100.0000 10.0000
v 88.4056 79.9179 10.0000
v 111.5944 79.9179 10.0000
v 123.1888 100.0000 10.0000
v 111.5944 120.0821 10.0000
v 88.4056 120.0821 10.0000
v 76.8112 100.0000 10.0000
v 77.4343 98.2240 10.2500
v 90.2552 79.5695 10.2500
v 112.8209 81.3455 10.2500
v 122.5657 101.7760 10.2500
v 109.7448 120.4305 10.2500
v 87.1791 118.6545 10.2500
v 77.4343 98.2240 10.2500
v 78.1170 96.5341 10.5000
v 92.0601 79.3158 10.5000
v 113.9431 82.7817 10.5000
v 121.8830 103.4659 10.5000
v 107.9399 120.6842 10.5000
v 86.0569 117.2183 10.5000
v 78.1170 96.5341 10.5000
v 78.8466 94.9215 10.7500
v 93.8214 79.1413 10.7500
v 114.9748 84.2198 10.7500
v 121.1534 105.0785 10.7500
v 106.1786 120.8587 10.7500
v 85.0252 115.7802 10.7500
v 78.8466 94.9215 10.7500
v 79.6136 93.3760 11.0000
v 95.5433 79.0328 11.0000
v 115.9297 85.6568 11.0000
v 120.3864 106.6240 11.0000
v 104.4567 120.9672 11.0000
v 84.0703 114.3432 11.0000
v 79.6136 93.3760 11.0000
v 80.4117 91.8863 11.2500
v 97.2326 78.9792 11.2500
v 116.8209 87.0929 11.2500
v 119.5883 108.1137 11.2500
v 102.7674 121.0208 11.2500
v 83.1791 112.9071 11.2500
v 80.4117 91.8863 11.2500
v 81.2383 90.4404 11.5000
v 98.8980 78.9721 11.5000
v 117.6597 88.5317 11.5000
v 118.7617 109.5596 11.5000
v 101.1020 121.0279 11.5000
v 82.3403 111.4683 11.5000
v 81.2383 90.4404 11.5000
v 82.0940 89.0272 11.7500
v 100.5497 79.0065 11.7500
v 118.4558 89.9793 11.7500
v 117.9060 110.9728 11.7500
v 99.4503 120.9935 11.7500
v 81.5442 110.0207 11.7500
v 82.0940 89.0272 11.7500
v 82.9827 87.6362 12.0000
v 102.1987 79.0807 12.0000
v 119.2160 91.4445 12.0000
v 117.0173 112.3638 12.0000
v 97.8013 120.9193 12.0000
v 80.7840 108.5555 12.0000
v 82.9827 87.6362 12.0000
v 83.9114 86.2590 12.2500
v 103.8557 79.1964 12.2500
v 119.9443 92.9373 12.2500
v 116.0886 113.7410 12.2500
v 96.1443 120.8036 12.2500
v 80.0557 107.0627 12.2500
v 83.9114 86.2590 12.2500
v 84.8894 84.8894 12.5000
v 105.5309 79.3585 12.5000
v 120.6415 94.4691 12.5000
v 115.1106 115.1106 12.5000
v 94.4691 120.6415 12.5000
v 79.3585 105.5309 12.5000
v 84.8894 84.8894 12.5000
v 85.9280 83.5238 12.7500
v 107.2328 79.5752 12.7500
v 121.3048 96.0514 12.7500
v 114.0720 116.4762 12.7500
v 92.7672 120.4248 12.7500
v 78.6952 103.9486 12.7500
v 85.9280 83.5238 12.7500
v 87.0400 82.1621 13.0000
v 108.9681 79.8573 13.0000
v 121.9281 97.6953 13.0000
v 112.9600 117.8379 13.0000
v 91.0319 120.1427 13.0000
v 78.0719 102.3047 13.0000
v 87.0400 82.1621 13.0000
v 88.2388 80.8074 13.2500
v 110.7406 80.2182 13.2500
v 122.5019 99.4108 13.2500
v 111.7612 119.1926 13.2500
v 89.2594 119.7818 13.2500
v 77.4981 100.5892 13.2500
v 88.2388 80.8074 13.2500
v 89.5377 79.4666 13.5000
v 112.5513 80.6727 13.5000
v 123.0135 101.2061 13.5000
v 110.4623 120.5334 13.5000
v 87.4487 119.3273 13.5000
v 76.9865 98.7939 13.5000
v 89.5377 79.4666 13.5000
v 90.9495 78.1501 13.7500
v 114.3973 81.2371 13.7500
v 123.4478 103.0870 13.7500
v 109.0505 121.8499 13.7500
v 85.6027 118.7629 13.7500
v 76.5522 96.9130 13.7500
v 90.9495 78.1501 13.7500
v 92.4851 76.8716 14.0000
v 116.2723 81.9278 14.0000
v 123.7872 105.0561 14.0000
v 107.5149 123.1284 14.0000
v 83.7277 118.0722 14.0000
v 76.2128 94.9439 14.0000
v 92.4851 76.8716 14.0000
v 94.1536 75.6481 14.2500
v 118.1662 82.7610 14.2500
v 124.0125 107.1128 14.2500
v 105.8464 124.3519 14.2500
v 81.8338 117.2390 14.2500
v 75.9875 92.8872 14.2500
v 94.1536 75.6481 14.2500
v 95.9611 74.4993 14.5000
v 120.0648 83.7518 14.5000
v 124.1037 109.2526 14.5000
v 104.0389 125.5007 14.5000
v 79.9352 116.2482 14.5000
v 75.8963 90.7474 14.5000
v 95.9611 74.4993 14.5000
v 97.9102 73.4470 14.7500
v 121.9507 84.9137 14.7500
v 124.0405 111.4667 14.7500
v 102.0898 126.5530 14.7500
v 78.0493 115.0863 14.7500
v 75.9595 88.5333 14.7500
v 97.9102 73.4470 14.7500
v 100.0000 72.5147 15.0000
v 123.8029 86.2574 15.0000
v 123.8029 113.7426 15.0000
v 100.0000 127.4853 15.0000
v 76.1971 113.7426 15.0000
v 76.1971 86.2574 15.0000
v 100.0000 72.5147 15.0000
v 102.2251 71.7269 15.2500
v 125.5978 87.7905 15.2500
v 123.3727 116.0636 15.2500
v 97.7749 128.2731 15.2500
v 74.4022 112.2095 15.2500
v 76.6273 83.9364 15.2500
v 102.2251 71.7269 15.2500
v 104.5761 71.1079 15.5000
v 127.3093 89.5170 15.5000
v 122.7332 118.4090 15.5000
v 95.4239 128.8921 15.5000
v 72.6907 110.4830 15.5000
v 77.2668 81.5910 15.5000
v 104.5761 71.1079 15.5000
v 107.0387 70.6818 15.7500
v 128.9097 91.4366 15.7500
v 121.8710 120.7548 15.7500
v 92.9613 129.3182 15.7500
v 71.0903 108.5634 15.7500
v 78.1290 79.2452 15.7500
v 107.0387 70.6818 15.7500
v 109.5947 70.4707 16.0000
v 130.3704 93.5446 16.0000
v 120.7758 123.0739 16.0000
v 90.4053 129.5293 16.0000
v 69.6296 106.4554 16.0000
v 79.2242 76.9261 16.0000
v 109.5947 70.4707 16.0000
v 112.2214 70.4949 16.2500
v 131.6629 95.8315 16.2500
v 119.4415 125.3366 16.2500
v 87.7786 129.5051 16.2500
v 68.3371 104.1685 16.2500
v 80.5585 74.6634 16.2500
v 112.2214 70.4949 16.2500
v 114.8926 70.7715 16.5000
v 132.7589 98.2832 16.5000
v 117.8663 127.5116 16.5000
v 85.1074 129.2285 16.5000
v 67.2411 101.7168 16.5000
v 82.1337 72.4884 16.5000
v 114.8926 70.7715 16.5000
v 117.5788 71.3141 16.7500
v 133.6321 100.8807 16.7500
v 116.0534 129.5666 16.7500
v 82.4212 128.6859 16.7500
v 66.3679 99.1193 16.7500
v 83.9466 70.4334 16.7500
v 117.5788 71.3141 16.7500
v 120.2475 72.1318 17.0000
v 134.2583 103.6007 17.0000
v 114.0109 131.4689 17.0000
v 79.7525 127.8682 17.0000
v 65.7417 96.3993 17.0000
v 85.9891 68.5311 17.0000
v 120.2475 72.1318 17.0000
v 122.8644 73.2292 17.2500
v 134.6164 106.4158 17.2500
v 111.7520 133.1866 17.2500
v 77.1356 126.7708 17.2500
v 65.3836 93.5842 17.2500
v 88.2480 66.8134 17.2500
v 122.8644 73.2292 17.2500
v 125.3942 74.6058 17.5000
v 134.6892 109.2949 17.5000
v 109.2949 134.6892 17.5000
v 74.6058 125.3942 17.5000
v 65.3108 90.7051 17.5000
v 90.7051 65.3108 17.5000
v 125.3942 74.6058 17.5000
v 127.8010 76.2557 17.7500
v 134.4637 112.2042 17.7500
v 106.6627 135.9485 17.7500
v 72.1990 123.7443 17.7500
v 65.5363 87.7958 17.7500
v 93.3373 64.0515 17.7500
v 127.8010 76.2557 17.7500
v 130.0493 78.1679 18.0000
v 133.9318 115.1074 18.0000
v 103.8825 136.9395 18.0000
v 69.9507 121.8321 18.0000
v 66.0682 84.8926 18.0000
v 96.1175 63.0605 18.0000
v 130.0493 78.1679 18.0000
v 132.1053 80.3259 18.2500
v 133.0909 117.9669 18.2500
v 100.9857 137.6410 18.2500
v 67.8947 119.6741 18.2500
v 66.9091 82.0331 18.2500
v 99.0143 62.3590 18.2500
v 132.1053 80.3259 18.2500
v 133.9370 82.7082 18.5000
v 131.9436 120.7444 18.5000
v 98.0066 138.0362 18.5000
v 66.0630 117.2918 18.5000
v 68.0564 79.2556 18.5000
v 101.9934 61.9638 18.5000
v 133.9370 82.7082 18.5000
v 135.5158 85.2889 18.7500
v 130.4981 123.4020 18.7500
v 94.9823 138.1131 18.7500
v 64.4842 114.7111 18.7500
v 69.5019 76.5980 18.7500
v 105.0177 61.8869 18.7500
v 135.5158 85.2889 18.7500
v 136.8166 88.0376 19.0000
v 128.7681 125.9029 19.0000
v 91.9515 137.8653 19.0000
v 63.1834 111.9624 19.0000
v 71.2319 74.0971 19.0000
v 108.0485 62.1347 19.0000
v 136.8166 88.0376 19.0000
v 137.8189 90.9205 19.2500
v 126.7725 128.2124 19.2500
v 88.9536 137.2919 19.2500
v 62.1811 109.0795 19.2500
v 73.2275 71.7876 19.2500
v 111.0464 62.7081 19.2500
v 137.8189 90.9205 19.2500
v 138.5069 93.9011 19.5000
v 124.5352 130.2985 19.5000
v 86.0283 136.3974 19.5000
v 61.4931 106.0989 19.5000
v 75.4648 69.7015 19.5000
v 113.9717 63.6026 19.5000
v 138.5069 93.9011 19.5000
v 138.8703 96.9408 19.7500
v 122.0844 132.1331 19.7500
v 83.2142 135.1922 19.7500
v 61.1297 103.0592 19.7500
v 77.9156 67.8669 19.7500
v 116.7858 64.8078 19.7500
v 138.8703 96.9408 19.7500
l 1 2
l 2 3
l 3 4
l 4 5
l 5 6
l 6 7
l 7 8
l 8 9
l 9 10
l 10 11
l 11 12
l 12 13
l 13 14
l 14 15
l 15 16
l 16 17
l 17 18
l 18 19
l 19 20
l 20 21
l 21 22
l 22 23
l 23 24
l 24 25
l 25 26
l 26 27
l 27 28
l 28 29
l 29 30
l 30 31
l 31 32
l 32 33
l 33 34
l 34 35
l 35 36
l 36 37
l 37 38
l 38 39
l 39 40
l 40 41
l 41 42
l 42 43
l 43 44
l 44 45
l 45 46
l 46 47
l 47 48
l 48 49
l 49 50
l 50 51
l 51 52
l 52 53
l 53 54
l 54 55
l 55 56
l 56 57
l 57 58
l 58 59
l 59 60
l 60 61
l 61 62
l 62 63
l 63 64
l 64 65
l 65 66
l 66 67
l 67 68
l 68 69
l 69 70
l 70 71
l 71 72
l 72 73
l 73 74
l 74 75
l 75 76
l 76 77
l 77 78
l 78 79
l 79 80
l 80 81
l 81 82
l 82 83
l 83 84
l 84 85
l 85 86
l 86 87
l 87 88
l 88 89
l 89 90
l 90 91
l 91 92
l 92 93
l 93 94
l 94 95
l 95 96
l 96 97
l 97 98
l 98 99
l 99 100
l 100 101
l 101 102
l 102 103
l 103 104
l 104 105
l 105 106
l 106 107
l 107 108
l 108 109
l 109 110
l 110 111
l 111 112
l 112 113
l 113 114
l 114 115
l 115 116
l 116 117
l 117 118
l 118 119
l 119 120
l 120 121
l 121 122
l 122 123
l 123 124
l 124 125
l 125 126
l 126 127
l 127 128
l 128 129
l 129 130
l 130 131
l 131 132
l 132 133
l 133 134
l 134 135
l 135 136
l 136 137
l 137 138
l 138 139
l 139 140
l 140 141
l 141 142
l 142 143
l 143 144
l 144 145
l 145 146
l 146 147
l 147 148
l 148 149
l 149 150
l 150 151
l 151 152
l 152 153
l 153 154
l 154 155
l 155 156
l 156 157
l 157 158
l 158 159
l 159 160
l 160 161
l 161 162
l 162 163
l 163 164
l 164 165
l 165 166
l 166 167
l 167 168
l 168 169
l 169 170
l 170 171
l 171 172
l 172 173
l 173 174
l 174 175
l 175 176
l 176 177
l 177 178
l 178 179
l 179 180
l 180 181
l 181 182
l 182 183
l 183 184
l 184 185
l 185 186
l 186 187
l 187 188
l 188 189
l 189 190
l 190 191
l 191 192
l 192 193
l 193 194
l 194 195
l 195 196
l 196 197
l 197 198
l 198 199
l 199 200
l 200 201
l 201 202
l 202 203
l 203 204
l 204 205
l 205 206
l 206 207
l 207 208
l 208 209
l 209 210
l 210 211
l 211 212
l 212 213
l 213 214
l 214 215
l 215 216
l 216 217
l 217 218
l 218 219
l 219 220
l 220 221
l 221 222
l 222 223
l 223 224
l 224 225
l 225 226
l 226 227
l 227 228
l 228 229
l 229 230
l 230 231
l 231 232
l 232 233
l 233 234
l 234 235
l 235 236
l 236 237
l 237 238
l 238 239
l 239 240
l 240 241
l 241 242
l 242 243
l 243 244
l 244 245
l 245 246
l 246 247
l 247 248
l 248 249
l 249 250
l 250 251
l 251 252
l 252 253
l 253 254
l 254 255
l 255 256
l 256 257
l 257 258
l 258 259
l 259 260
l 260 261
l 261 262
l 262 263
l 263 264
l 264 265
l 265 266
l 266 267
l 267 268
l 268 269
l 269 270
l 270 271
l 271 272
l 272 273
l 273 274
l 274 275
l 275 276
l 276 277
l 277 278
l 278 279
l 279 280
l 280 281
l 281 282
l 282 283
l 283 284
l 284 285
l 285 286
l 286 287
l 287 288
l 288 289
l 289 290
l 290 291
l 291 292
l 292 293
l 293 294
l 294 295
l 295 296
l 296 297
l 297 298
l 298 299
l 299 300
l 300 301
l 301 302
l 302 303
l 303 304
l 304 305
l 305 306
l 306 307
l 307 308
l 308 309
l 309 310
l 310 311
l 311 312
l 312 313
l 313 314
l 314 315
l 315 316
l 316 317
l 317 318
l 318 319
l 319 320
l 320 321
l 321 322
l 322 323
l 323 324
l 324 325
l 325 326
l 326 327
l 327 328
l 328 329
l 329 330
l 330 331
l 331 332
l 332 333
l 333 334
l 334 335
l 335 336
l 336 337
l 337 338
l 338 339
l 339 340
l 340 341
l 341 342
l 342 343
l 343 344
l 344 345
l 345 346
l 346 347
l 347 348
l 348 349
l 349 350
l 350 351
l 351 352
l 352 353
l 353 354
l 354 355
l 355 356
l 356 357
l 357 358
l 358 359
l 359 360
l 360 361
l 361 362
l 362 363
l 363 364
l 364 365
l 365 366
l 366 367
l 367 368
l 368 369
l 369 370
l 370 371
l 371 372
l 372 373
l 373 374
l 374 375
l 375 376
l 376 377
l 377 378
l 378 379
l 379 380
l 380 381
l 381 382
l 382 383
l 383 384
l 384 385
l 385 386
l 386 387
l 387 388
l 388 389
l 389 390
l 390 391
l 391 392
l 392 393
l 393 394
l 394 395
l 395 396
l 396 397
l 397 398
l 398 399
l 399 400
l 400 401
l 401 402
l 402 403
l 403 404
l 404 405
l 405 406
l 406 407
l 407 408
l 408 409
l 409 410
l 410 411
l 411 412
l 412 413
l 413 414
l 414 415
l 415 416
l 416 417
l 417 418
l 418 419
l 419 420
l 420 421
l 421 422
l 422 423
l 423 424
l 424 425
l 425 426
l 426 427
l 427 428
l 428 429
l 429 430
l 430 431
l 431 432
l 432 433
l 433 434
l 434 435
l 435 436
l 436 437
l 437 438
l 438 439
l 439 440
l 440 441
l 441 442
l 442 443
l 443 444
l 444 445
l 445 446
l 446 447
l 447 448
l 448 449
l 449 450
l 450 451
l 451 452
l 452 453
l 453 454
l 454 455
l 455 456
l 456 457
l 457 458
l 458 459
l 459 460
l 460 461
l 461 462
l 462 463
l 463 464
l 464 465
l 465 466
l 466 467
l 467 468
l 468 469
l 469 470
l 470 471
l 471 472
l 472 473
l 473 474
l 474 475
l 475 476
l 476 477
l 477 478
l 478 479
l 479 480
l 480 481
l 481 482
l 482 483
l 483 484
l 484 485
l 485 486
l 486 487
l 487 488
l 488 489
l 489 490
l 490 491
l 491 492
l 492 493
l 493 494
l 494 495
l 495 496
l 496 497
l 497 498
l 498 499
l 499 500
l 500 501
l 501 502
l 502 503
l 503 504
l 504 505
l 505 506
l 506 507
l 507 508
l 508 509
l 509 510
l 510 511
l 511 512
l 512 513
l 513 514
l 514 515
l 515 516
l 516 517
l 517 518
l 518 519
l 519 520
l 520 521
l 521 522
l 522 523
l 523 524
l 524 525
l 525 526
l 526 527
l 527 528
l 528 529
l 529 530
l 530 531
l 531 532
l 532 533
l 533 534
l 534 535
l 535 536
l 536 537
l 537 538
l 538 539
l 539 540
l 540 541
l 541 542
l 542 543
l 543 544
l 544 545
l 545 546
l 546 547
l 547 548
l 548 549
l 549 550
l 550 551
l 551 552
l 552 553
l 553 554
l 554 555
l 555 556
l 556 557
l 557 558
l 558 559
l 559 560
